<svg id="Layer_1" data-name="Layer 1" xmlns="http://www.w3.org/2000/svg" viewBox="0 0 493.17 425.18"><defs><style>.cls-1{fill:#111;}.cls-2{fill:#4f4f4f;}.cls-3{fill:#222;}.cls-4{fill:#666;}.cls-5{fill:#fdfdfd;}.cls-6{fill:#464646;}.cls-7{fill:#bdbdbd;}</style></defs><title>feelsgoodman</title><path class="cls-1" d="M654.7,168.6c4.2,3.9,6.2,8.9,7.5,14.2,3,12.2,4.3,24.7,5.4,37.2,0.6,6.5-1.6,12.6-4.5,18.3-3.7,7.5-7.6,14.8-8.9,23.2-0.1.5-.3,0.9-0.4,1.3-0.5,2.1-3.7,2-3.9,3.3a4.81,4.81,0,0,1-2.9,4c-5.3,3.1-10.5,6.2-15.7,9.3-3,1.8-3.3,3.4-1.3,6.2,6,8.4,11.9,16.9,18.2,25,4.3,5.5,8.1,11.3,11.8,17.1,5.3,8.3,4.3,14.7-3,21.5-2.1,0-1.8-1.7-1.7-2.8,0.2-2.2.3-4.5,0.7-6.7a23.75,23.75,0,0,0,.2-5.3c-0.2-3.2-1.7-3.9-4.4-2.1-1.7,1.2-3.3,2.5-5,3.6-12.2,8.3-25.9,13.4-40,17.6-18,5.4-36.4,7.9-55,10.1a195.15,195.15,0,0,1-28.6,1.6c-5.5-.2-11,0-16.5,0a316.33,316.33,0,0,1-44.5-3.4c-26.8-3.7-53.1-9.6-79.5-15.5-20.2-4.5-40-10.9-59.5-17.9-7.2-2.6-14.3-5.4-21.7-6.9-15.1-3.2-26.5,5.9-27,21.4a25.83,25.83,0,0,0,5.9,17.7,289.82,289.82,0,0,0,58.7,54.6,301.92,301.92,0,0,0,41.3,24.6,408.41,408.41,0,0,0,41.5,17.4,247.63,247.63,0,0,0,43.2,11.4,56.66,56.66,0,0,0,28.3-2.2c6.6-2.2,13.1-4.8,19.9-6,14.3-2.5,28.5-5.9,43.1-5.5a23.28,23.28,0,0,0,5.3-.6,71.22,71.22,0,0,1,19.5-2.2c9.4,0.1,18.7-.3,28-2.3,8-1.7,15.5-4.6,21.6-10.3,11-10.4,14.8-21.4,8.2-35.4-0.4-.8-0.7-1.5-1.1-2.3a2.88,2.88,0,0,1,.4-3.6c1.2-1.2,2.4-.7,3.5.1,2.4,4.6,5.1,9,7.1,13.7,2.9,6.9.6,13.2-2.9,19.2a29,29,0,0,1-5.1,6,65.88,65.88,0,0,0-11,14.2,23.8,23.8,0,0,1-3.1,4c-7.1,8.2-14.5,16.2-22,24.1a21,21,0,0,1-10.7,6.3c-16.7,4.1-32.8,9.8-49,15.5-8.2,2.9-16.6,2.3-25,2.8-7.4.4-14.7,1.2-21.8,3.8-6.5,2.3-13.3,2.3-20,2.1-9.8-.2-19.7-0.3-29.5-0.6-16.3-.5-32.7.3-48.9-0.9-24.4-1.7-48.4-4.7-71.6-13.2-29.7-10.9-56.8-26.4-83.2-43.7-12.3-8-23.2-17.9-35.4-25.8-12.4-8-20.8-19.6-29.4-31-4.8-6.4-5.8-14-5.6-21.9,0.2-8.5.2-17.1-.1-25.6-0.4-15,1-30,2.6-44.9,1-9.4,1.4-18.9,3.3-28.2,3-14.2,10.1-26.3,18.7-37.7,6.1-8.2,13.5-15.4,19.4-23.7,1.2-1.7,2.3-3.4,3.6-5.1a39.79,39.79,0,0,0,8.4-22,47,47,0,0,1,5.6-19c8.6-16.1,19-31,32.2-43.8,11.5-11.1,25.3-18.6,39.7-25.2,9.2-4.2,18.1-9.1,28.2-10.9,25.9-4.5,50.2-1.5,71.9,14.6,6.2,4.6,12.9,8.4,19.4,12.5,3.8,2.3,7.8,2.3,11.9,1,3.5-1.1,6.7-3,10-4.5A110.39,110.39,0,0,1,508.6,100a60.64,60.64,0,0,1,22.7,7A591.39,591.39,0,0,0,603,140.5c14.7,5.6,28.6,13.2,42.6,20.3a21.39,21.39,0,0,1,8.3,6.6c0,1.8-1.3,1.8-2.6,1.7a8,8,0,0,1-3.6-1.4c-8.7-5.5-18.4-8.2-28.6-9.6a168.54,168.54,0,0,0-21.3-1.9c-6.7-.1-13.5.3-20.2,0.8-9,.6-17.9,1.3-26.7,3.3a158.68,158.68,0,0,0-35.3,12.2c-1.4.7-3.9,1.3-3.1,3.3,0.8,2.2,3.1,1,4.7.5,9-2.8,17.9-6,27.2-8.3a150.7,150.7,0,0,1,30.6-3.8c9.4-.3,18.7-0.6,28.1-0.5,15.6,0.2,30.6,2.8,44.7,9.7a6.7,6.7,0,0,0,1.8.7c2.8,0.8,3.9-.1,3.5-3C652.5,169.8,652.6,168.6,654.7,168.6Z" transform="translate(-174.53 -84.91)"/><path class="cls-2" d="M641.7,398.4c-3.2.4-3.8,1.1-2.4,3.6,11,19.2-1.1,36.1-15.4,44.2-7.7,4.4-16.4,5.7-25.1,6.9-9,1.2-18-.1-27,1.1a22.18,22.18,0,0,0-4.5.6c-7.9,2.6-16.3.9-24.3,2.3-14.2,2.5-28.8,3.1-42.3,8.7-16,6.6-32.1,6.1-48.6,2.2-22.2-5.3-43.4-13.2-64.1-22.6a307.25,307.25,0,0,1-62.8-38.2,285.33,285.33,0,0,1-46.9-46.3c-8.5-10.6-6.9-28.4,3.2-36.5,5.5-4.4,11.9-5.4,18.6-4.2,7.7,1.3,15,4.3,22.3,6.9a598,598,0,0,0,94.2,25.4c12.6,2.3,24.9,5.6,37.6,7.3,13.7,1.8,27.4,4,41.4,4.2,9.8,0.2,19.6-.3,29.5.1,14.8,0.6,29.3-1.9,43.9-3.8a237.26,237.26,0,0,0,56.8-14.6,96.84,96.84,0,0,0,24.4-13.9c1.6-1.2,3-3.5,5.6-2.3s1.7,3.9,1.7,6c-0.1,3.4-.5,6.7-0.8,10.1-0.1,1.3-.5,2.6.3,3.8-1.9,2.6-3.3,5.6-6.6,6.8-11.6,4.6-23.7,7.6-35.3,12-8,3-16.4,4.5-24.8,6.2-16.5,3.3-33.3,5.7-49.9,8.2a154.79,154.79,0,0,1-25.5,2c-15.5-.1-30.9,0-46.4,0-2.7-.1-5.4-0.1-8.1-0.2-6-.6-12-0.8-17.9-1.3a257.85,257.85,0,0,1-30.3-4.7c-23.4-4.8-46.7-10.4-69.4-18.1-8.4-2.9-16.8-6-25.4-8.4a80.44,80.44,0,0,0-8.5-1.9c-3.8-.7-6,1.5-5.5,5.3a11.69,11.69,0,0,0,2.4,5.6,82.67,82.67,0,0,0,18.3,16.6,570.18,570.18,0,0,0,75,43.3c12,5.8,24.7,9.9,37.6,13.3,11.2,3,22.5,5.8,34,7.7a115.06,115.06,0,0,0,17.6,1.5c10.5,0.2,21,0,31.5.3a221.22,221.22,0,0,0,24.4-1,325.73,325.73,0,0,0,40.5-6.7,115.54,115.54,0,0,0,30.2-11.2c0.3-.2.7-0.4,1-0.6,7.8-4.7,8.5-10.7,2.2-17.2-8-8.3-17.2-15.4-26-22.8a27.56,27.56,0,0,1-3-2.9,2.57,2.57,0,0,1-.4-3.1,2.5,2.5,0,0,1,2.5-1.5c7.2,0.9,14.4-1.2,21.6.3,2.3,0.5,4.6.9,6.8,1.6,1,0.3,1.9.8,3,.4A77,77,0,0,1,641.7,398.4Z" transform="translate(-174.53 -84.91)"/><path class="cls-3" d="M622.5,378.8c-0.8,1.5-2,1.4-3.4,1a46.65,46.65,0,0,0-20-1.8,30,30,0,0,1-6.7-.1c-1-.2-2.2-0.5-2.7.7s0.5,1.9,1.3,2.6c5.1,4.3,10.2,8.5,15.3,12.8a152.15,152.15,0,0,1,14.3,13.5c4.6,4.9,4.3,10.6-.6,15.1-4.1,3.8-9.2,5.8-14.2,7.9-14.2,6.1-29.3,8.7-44.4,11.2a214.36,214.36,0,0,1-35.8,2.9c-14.2-.1-28.5.3-42.7-0.2-13-.5-25.5-3.8-38.1-6.8a256.73,256.73,0,0,1-62.2-23.4c-22.2-11.9-44.1-24.4-64.5-39.4A73.18,73.18,0,0,1,304,361.1a11.77,11.77,0,0,1-2.3-6.2c-0.4-4.9,2.1-7.3,6.9-6.4a114.08,114.08,0,0,1,15,3.9c12,3.8,23.7,8.4,35.8,11.8a605.63,605.63,0,0,0,71.5,16.2,173,173,0,0,0,28.8,2.3c2.8,0.7,5.6-.2,8.4.5,17.5,0,35.1.4,52.6-.1,12.9-.3,25.7-2.9,38.4-4.9,14.6-2.2,29.2-4.9,43.7-7.9a56,56,0,0,0,7-2c10.7-3.5,21.3-7.2,32-10.7a25.82,25.82,0,0,1,8.3-1.4c-6.5,5.6-14.4,8.6-22.1,11.9a26.39,26.39,0,0,0-2.9,1.5C621.1,371.8,620.2,374.8,622.5,378.8Z" transform="translate(-174.53 -84.91)"/><path class="cls-4" d="M654.7,168.6c-1.6.9-.8,2.1-0.3,3.1,0.6,1.2,1.2,2.4.2,3.7a3.77,3.77,0,0,1-3.9,1,17,17,0,0,1-3.4-1.2c-13.7-6.9-28.4-9.5-43.5-9.8-13.9-.3-27.7.2-41.6,1.2-10.9.8-21.4,3.8-31.8,7.1-5.1,1.6-10.2,3.3-15.3,4.8a6,6,0,0,1-4.9-.4c-1.4-.8-1.7-1.9-0.6-3.2a12.44,12.44,0,0,1,4.1-3c16.2-7.9,33.2-13.3,51.3-15,10-1,20-2,30-1.8,16.7,0.3,33.4,1.3,48.8,9.1,1.8,0.9,3.4,2,5.1,2.9,1.5,0.8,3,1.7,4.7.5A11,11,0,0,0,654.7,168.6Z" transform="translate(-174.53 -84.91)"/><path class="cls-4" d="M460.4,164.8a2.79,2.79,0,0,0-3.2-2.8c-17.4.9-34.9-.5-52.2,2.1-11.9,1.8-23,6.1-34.1,10.5-12.9,5.1-25.8,10.4-39.2,14-4.9,1.3-9.9,1.9-14.5,4.4s-6.4,5-5.9,9.2a9.65,9.65,0,0,0,7.7,8.9c10.5,2.7,18.5,9.3,26,16.6,6.7,6.5,13,13.3,20.2,19.2,12.3,10.3,26.8,15.8,42.2,19.8s31.1,4.3,46.9,4c11.5-.2,22.9-0.9,34-3.7a12.92,12.92,0,0,1,4.8-.1,2.56,2.56,0,0,1,2.4,2,2.29,2.29,0,0,1-1.1,2.4,16.35,16.35,0,0,1-4.4,3c-14.7,5.8-29.7,10.5-45.9,9.3-21.5-1.6-42.3-6.2-62-15.2-17.7-8-33.5-18.7-46.8-33l-1.2-1.2c-1-.8-2.1-1.1-3.1-0.3-1.1,1-.5,2,0.2,3a84.38,84.38,0,0,0,17.3,18c11.1,8.6,23.8,14.2,36.4,20.1,12.1,5.8,24.9,9.4,38,12.1,2.2,0.4,4.5,1.1,6.7.8,4.5-.6,8.1,2,12.3,2.5,1.5,0.2,1.1,1.3.3,2a7.54,7.54,0,0,1-4.3,1.8c-8.6.9-17.2,1.7-25.8,1.8-15,.2-29.4-3-43.8-6.5-10.7-2.6-21.3-5.4-31.2-10.3-3-1.5-6.3-2.3-9.5-3.4-1-.3-2-1-2.8.2a2.23,2.23,0,0,0,.8,3.2c2.1,1.6,4.2,3.2,6.3,4.7,9.2,6.3,19.7,9.6,30.4,12.2a266.26,266.26,0,0,0,52.5,7.8c11.7,0.5,22.9-2,34.1-5.2a147.42,147.42,0,0,0,45.6-22.2c5.6-4,9.3-9.4,11.9-15.7,2-4.8,3.8-5.3,8.2-2.4,14.1,9.4,26,21.1,36.8,34.2,5.1,6.2,10,12.7,14.7,19.2a40.72,40.72,0,0,0,4,4.3c0.8,0.8,1.8,1.6,3,.5,1-.9.4-1.9-0.1-2.8a37.76,37.76,0,0,1-3.7-8.5c-1-3.4-.4-4.9,3-6a117.68,117.68,0,0,1,27.5-5.5c6.3-.6,12.5-1,18.8-1.4a14.64,14.64,0,0,1,11.6,3.9c6.1,5.7,10.6,12.7,14.2,20.1,2.6,5.5,1.8,9.4-2.7,13.4-7.6,6.9-16.7,11.4-26.4,14.5a301,301,0,0,1-53.2,11.9c-22.9,3-46,3.2-69.1,2.5-14.9-.5-29.6-1.5-44.1-4.7-41.2-8.9-82.3-18-122.3-31.6-7.2-2.4-14.4-4.9-21.5-7.7-9.8-3.9-18.2-1.7-25.7,5.1-7.8,7-12.7,15.5-12.4,26.3a21.52,21.52,0,0,0,3.9,12.1c5.2,7.9,11.6,14.6,18.2,21.4a369.57,369.57,0,0,0,68.3,55.2c18.7,11.7,38,22.4,59.2,29.2,18.9,6.1,38.3,9.8,57.8,13.4a19.61,19.61,0,0,0,12.2-1.1c7.1-3.3,14.8-4.6,22.3-6.9,8.7-2.6,17.5-5,26.2-7.5a78,78,0,0,1,25-2.6,65,65,0,0,0,22.3-2.7c5.5-1.7,10.9-1.5,16.4-.5,5.3,1,7.8,5.1,6.1,10.2a15.88,15.88,0,0,1-12,10.8c-9.7,2.2-19.4,4.6-28.5,8.7a89,89,0,0,0-9.6,5.2,23.13,23.13,0,0,1-12.3,3.5c-13.6-.1-26.6,2.9-39.3,7.4a28.46,28.46,0,0,1-9.1,1.5c-7.3,0-14.6,0-22-.1a53.71,53.71,0,0,0-12.6,1.1,10.11,10.11,0,0,1-8.6-1.4,3.88,3.88,0,0,0-3.7-.8c-4.5,1.7-9.1,1.3-13.7,1.1-11-.6-21.9-0.3-32.9-0.4A218.58,218.58,0,0,1,309,481.8a545.35,545.35,0,0,1-91.1-54.6,128.73,128.73,0,0,1-24.4-22.8c-7.7-9.6-11.3-20.9-12-33.1a320.24,320.24,0,0,1,.1-42.7c1.3-18.4,3.2-36.8,6.3-55,2.7-15.3,10.4-28.2,19.8-40.2,2.7-3.5,5.8-6.7,8.8-9.9s6.6-5.1,11.2-4.8c3.2,0.2,4.3-1.1,5-5.1,1.1-6.5,2.1-13,3.2-19.4,3.1-19.3,12.2-35.7,24.2-50.7,9.8-12.2,20.7-23.2,33.9-31.9s27.6-12.4,43-14.5c27.2-3.6,52.5,2.6,77.1,13.4,2.1,0.9,4.1,1.8,6.2,2.8,1.1,0.5,2.3,1.1,2,2.6s-1.5,2-3,2.1c-6.4.4-12.7,1-19.1,1a149.3,149.3,0,0,0-24,2.6c-8.8,1.6-17.8,1.1-26.6,2.4-15.8,2.4-30.5,7.7-43.6,17.1-3.6,2.6-7.3,5-10.9,7.5-0.7.5-1.7,0.9-1.3,1.9,0.6,1.2,1.6.6,2.4,0.2,7.1-3.4,14.3-6.7,21.2-10.4,11.8-6.4,24.7-8.6,37.8-10.5,15.5-2.2,31.1-.6,46.6-0.2a221.41,221.41,0,0,1,40.5,4.6,130.43,130.43,0,0,1,20.2,6.1c1.2,0.5,2.8.7,2.5,2.5s-2,1.3-3.3,1.5c-14.8,1.9-29.8,1.7-44.6,2.9-24.6,2-48.3,7.7-70.5,18.9-4.9,2.5-10.1,4.5-15.1,6.8-0.9.4-2.4,0.6-2.1,1.9s1.8,1.1,2.9.9a81.49,81.49,0,0,0,20.4-6.2c16.6-7.1,33.7-12.7,51.7-15.3,14.8-2.2,29.7-4.5,44.8-4.2a161.15,161.15,0,0,1,37.8,5.4c5.3,1.4,8.9,5,12.8,8.4a2.05,2.05,0,0,1,.6,2.8c-0.7,1.2-1.8,1.2-2.9.7-8.4-3.6-17.4-3.3-26.3-3.9-1.6-.1-4-0.5-3,2.7C465.2,168.7,461.3,167.8,460.4,164.8Z" transform="translate(-174.53 -84.91)"/><path class="cls-5" d="M460.4,164.8c2.2,1.8,4.8,1.6,7.4,1.6,19.3,4,33.8,14.5,42.3,32.4a46.3,46.3,0,0,1-9.6,53.4,33.76,33.76,0,0,1-10,6.7,92.84,92.84,0,0,1-32.1,7.4c-23.9,1.5-46.6-4.2-68.6-12.4-15.4-5.8-27.7-16.2-38.4-28.6-7.3-8.5-15.6-15.7-26.7-18.8a7.21,7.21,0,0,1-3.3-2.1,5.69,5.69,0,0,1-1.6-5.9c0.6-2.2,2.4-3,4.5-3.3,4.7-.7,9.5-1,14.2-1.9,10.3-2.1,19.4-6.9,28.6-11.5,17.4-8.6,36.1-12.9,55.1-15.9A157.1,157.1,0,0,1,460.4,164.8Z" transform="translate(-174.53 -84.91)"/><path class="cls-5" d="M609.4,256.8c-20.3-.3-40.2-2.7-59.5-9.3a63,63,0,0,1-21-11.7,18.31,18.31,0,0,1-6.7-13.1c-0.8-9.3-1.9-18.5-3.6-27.6-1.5-8.1,1.7-13.1,9.9-15.7a182.35,182.35,0,0,1,47.5-8.5c16.4-.8,32.8-0.5,48.9,3.4a99.49,99.49,0,0,1,19.8,7.1c9.5,4.7,14.9,12.4,16.2,22.8a85,85,0,0,1-.9,27.1c-2.1,10.9-8.5,17.8-18.6,21.8-7.5,3-15.2,3.8-23.2,3.6C615.2,256.8,612.3,256.8,609.4,256.8Z" transform="translate(-174.53 -84.91)"/><path class="cls-4" d="M497.7,105.7a73.19,73.19,0,0,1,36.3,8.7,10,10,0,0,0,4.8,1.5c1.5,0,3-.3,3.4,1.9s0,4-2.1,5a14.25,14.25,0,0,1-3.5,1.1c-12.4,1.9-23.3,8.2-35.1,11.8-0.9.3-1.8,0.8-1.5,2s1.6,1,2.6.8c13.7-2.1,27.5-3.6,41.4-3.4a287.83,287.83,0,0,1,40.3,3.9,9,9,0,0,1,2.2.6c1.9,0.7,3,1.8,2.8,4s-1.7,2.9-3.5,3.1c-5,.5-9.7,2-14.6,3-13.3,2.9-26.8,4.9-39.8,8.9a96.85,96.85,0,0,0-11.1,3.9c-4,1.8-7.2,1.1-10.8-1.1-13.7-8.4-27.1-17.2-41.4-24.4a124.89,124.89,0,0,0-16.8-7.2,14.61,14.61,0,0,1-5.8-3.3c-2.3-2.3-1.9-5.7,1.1-7C462.8,112.3,479.3,105.3,497.7,105.7Z" transform="translate(-174.53 -84.91)"/><path class="cls-4" d="M620.1,271.1c-22.8-.7-45.6-2.4-67.7-9.1-3.1-.9-6.4-1.5-9.6-2.2-1-.2-2.6-1.1-3,0.2s1.4,1.7,2.4,2.2c6.4,3.3,13.3,5,20.2,6.7,11.9,2.9,23.9,5.6,35.6,9.5,1.9,0.6,4.8.8,4.4,3.8-0.3,2.7-3,2.3-4.9,2.7-5,1.1-10.1,2.2-15.1,3.2a30.23,30.23,0,0,1-22.7-4.3,172.13,172.13,0,0,1-39-33.7c-0.2-.3-0.5-0.6-0.7-0.9-1.2-1.7-1.6-3.4-.4-5.2s3.2-1.8,5.1-1.1a95.33,95.33,0,0,1,10.4,4.4c12.3,6.5,25.5,9.6,39.1,12,15.3,2.7,30.5,5.2,46.1,4.6a108.08,108.08,0,0,0,20.5-3.2c1.3-.3,2.5-0.7,3.8-0.9,1.8-.4,3.9-1,4.8,1.4,0.9,2.1-.3,4.3-2.7,5.3a56.14,56.14,0,0,1-16.6,4.1A55.42,55.42,0,0,1,620.1,271.1Z" transform="translate(-174.53 -84.91)"/><path class="cls-6" d="M468.2,383.2c-2.8-.1-5.7.5-8.4-0.5C462.6,382.9,465.4,382.2,468.2,383.2Z" transform="translate(-174.53 -84.91)"/><path class="cls-6" d="M506.3,429.4c-10.1.1-18.4-3.4-26.8-7-18.8-8.1-37.4-16.6-56.4-24a87.5,87.5,0,0,0-27.6-6c-4.9-.2-9.8.1-14.2,2.6-6,3.3-12.3,3.3-18.5.8-9.9-4.1-18.9-10-28-15.6a194.67,194.67,0,0,1-22-15.1c-1.5-1.2-3.1-2.5-2.4-4.6,0.7-2.3,2.9-2.3,4.9-2.4,4.7-.3,9,1.6,13.4,2.8,19.1,4.9,37.6,11.6,56.9,16a511.35,511.35,0,0,0,62.6,10.6c14.5,1.5,29,1.9,43.5,2.3,12,0.3,24.2,1,35.8,5,6.1,2.1,8.1,5.4,9,11.8,1.1,7.4-2.3,12-7.9,15.8C521.7,426.9,514.1,429.6,506.3,429.4Z" transform="translate(-174.53 -84.91)"/><path class="cls-7" d="M533,441.1c-2.5-.1-5,0.2-7.5-0.5a2.28,2.28,0,0,1-1.8-1.1c-0.3-.8.3-1.4,0.9-1.9,5-4.2,10.1-8.2,14.9-12.6a37.9,37.9,0,0,0,8.8-11.1c1.2-2.3.4-4.3-.8-6.3a145.61,145.61,0,0,0-9.7-13.6c-1.8-2.1-1-3.4,1-4.7,2.9-1.9,6.2-2.5,9.5-2.9,8.4-1.2,16.8-2.5,25.2-3.2,7.3-.6,12.7,3.1,18,7.1A126.23,126.23,0,0,1,610,406.9c6.2,7.1,5,14.1-3.8,17.3a342.3,342.3,0,0,1-33.1,10.2c-11.5,3-23.4,4.3-35,6.7A29,29,0,0,1,533,441.1Z" transform="translate(-174.53 -84.91)"/><path class="cls-7" d="M397.9,402.4c7-.3,13,1.7,19.1,3.5a173.61,173.61,0,0,1,29.8,11.6c8.4,4.3,16.5,9.5,24.7,14.2a2.07,2.07,0,0,1,1.1,2.6c-0.3,1.4-1.4,1.4-2.4,1.3a121.1,121.1,0,0,1-23.9-3.6,359.77,359.77,0,0,1-44.4-14.5c-5.2-2.1-10.3-4.8-15.3-7.3-1.4-.7-2.9-1.6-2.7-3.5,0.2-2.1,2-2.4,3.7-2.7C391.2,403.1,394.7,402,397.9,402.4Z" transform="translate(-174.53 -84.91)"/><path class="cls-1" d="M250.1,330.7a1.86,1.86,0,0,1-1.7-1.9,4.49,4.49,0,0,1,.5-1.9c4.9-7.6,9.8-15.3,17-21.1,0.9-.7,1.8-1.7,2.9-0.8s0.5,2.1-.1,3A115.18,115.18,0,0,1,252,329.4,2.89,2.89,0,0,1,250.1,330.7Z" transform="translate(-174.53 -84.91)"/><path class="cls-1" d="M474.3,214.8c0,2.4.2,4.9,0,7.3-1,10.9-6.8,18.4-16.9,22.5a73.62,73.62,0,0,1-19.6,4.6c-13.8,1.5-24.7-8.9-27.4-20.8-5-22.4,13.6-45.7,36.5-45.7,15.7,0.1,27.2,11.3,27.5,27v5.1h-0.1Z" transform="translate(-174.53 -84.91)"/><path class="cls-1" d="M570.7,216.7c0.5-11.9,5.2-21.8,14.4-29.3,7.3-5.9,23.9-7.3,32.2,3.2,4.1,5.2,8,10.4,10.5,16.5a13.12,13.12,0,0,1,.6,8.5,84.92,84.92,0,0,1-8.3,19.6c-4.3,7.1-9.9,9.3-18,7.4a15.88,15.88,0,0,0-6.1-.6c-12.3,1.9-24.4-9.8-25.3-22.3A30,30,0,0,1,570.7,216.7Z" transform="translate(-174.53 -84.91)"/><path class="cls-5" d="M440.1,220c0-7.9,4.9-11.6,11.6-9.7a15.33,15.33,0,0,1,7,4c2.2,2.2,2.3,4,.5,6.5a38.87,38.87,0,0,1-8.1,8.1q-4.05,3-7.5-.6A12.77,12.77,0,0,1,440.1,220Z" transform="translate(-174.53 -84.91)"/><path class="cls-5" d="M603.7,226.2h-1.4c-2.1,0-4.3.1-5.3-2.2a6.55,6.55,0,0,1,.8-6.6,10.84,10.84,0,0,1,14.5-2.8,6.22,6.22,0,0,1-.6,10.3A20.08,20.08,0,0,1,603.7,226.2Z" transform="translate(-174.53 -84.91)"/></svg>