<svg id="Layer_1" data-name="Layer 1" xmlns="http://www.w3.org/2000/svg" viewBox="0 0 193.95 136.33"><defs><style>.cls-1{fill:#f9f9ea;}.cls-2{fill:#141210;}.cls-3{font-size:24px;font-family:MV Boli;}</style></defs><title>feelschatman</title><path class="cls-1" d="M305.85,543.33c0.46,4.35,4.75,5.32,7.07,8a35.57,35.57,0,0,0,13,4.39c8.17,1,16.36,1.31,24.57,1.58,16.2,0.52,32.39,1.8,48.61.64a6.8,6.8,0,0,0,3.22-.66c12.67-7.33,19.61-18.64,21.16-32.8,0.74-6.81,2.21-12.42,7.31-17.22,6.77-6.37,10.77-14.18,9.9-23.86-0.8-1-.36-2-0.34-3.08-2.35-7.84-7.34-13.91-13-19.59-2.52-2.53-4.81-5.21-5.59-9-1.76-8.58-6.35-14.62-7.52-19.38a19.34,19.34,0,0,0-4.38-4.37c-1.92-1.38-4.82-2.9-5.29-2.33-0.24.29,0.06,1.2,2.5,4a21.45,21.45,0,0,1,2.25,3.29,22.05,22.05,0,0,1,2.45,13.73c-0.33,2.38-.62,4.28-2.16,5.77a8.17,8.17,0,0,1-5.17,1.94c-4.46.41-9,.66-13.43,0.77-14.45.37-28.91-.56-43.36,0.71-11.7,1-21.14,5.77-27.71,15.7-1.34,2-3.23,4-3.33,6.44-0.34,8.67-.61,17.32,2.73,25.68,2.79,7,2.57,7.13-4,10.78a20.7,20.7,0,0,0-11.15,16.12C303.57,535.19,305.07,539.15,305.85,543.33Z" transform="translate(-302.05 -424.84)"/><path class="cls-2" d="M302.32,527.83l2-6.14q0.23-.37.42-0.74l0.48-.48,0.72-.71c1.8-1.44,4.2-2.26,5.09-4.63a17.88,17.88,0,0,0,3.26-3.34,1.76,1.76,0,0,0,.58-0.89,6.42,6.42,0,0,0,.74-4.46c0.1-2.88-1.35-5.64-1.54-8.49a0.79,0.79,0,0,0,0-.36,1.12,1.12,0,0,0-.15-0.16c0-.21-0.05-0.42-0.09-0.62a8.51,8.51,0,0,0-.35-1.23c0-.12,0-0.23-0.07-0.35q-0.06-1.35-.09-2.73a111.77,111.77,0,0,1,.48-13.15,8.85,8.85,0,0,1,.54-3.82,12.84,12.84,0,0,0,1.41-4.54,10.5,10.5,0,0,1,.43-1,10.62,10.62,0,0,1,1.53-2.26c0.77-.78,1.57-1.65,2.37-2.59q0.79-.93,1.47-1.82a17.36,17.36,0,0,1,3.54-3.25c1.53-1.06,3-2.17,4.57-3.21a19.11,19.11,0,0,0,2.51-1.09c2.56-1.34,7-2.49,14-3.28,11.42-1.26,26.2-.44,27.84-0.34,2.2,0.17,4.51.28,6.92,0.33q2.67,0.05,5.17,0c0.74,0,2,.11,3.53.24,6.75,0.55,9.81,1.09,14.39.58s5.38-2.93,5.3-6.61c0-4.55.46-9.18-2.07-13.34a3,3,0,0,0-.06-0.71l-0.32-.66,2.14,0c2.61,4.54,3.27,9.65,2.77,15.08-0.47,5.1-2.39,7.25-7.33,7.71-4.46.41-9,.66-13.43,0.77-14.45.37-28.91-.56-43.36,0.71-11.7,1-21.14,5.77-27.71,15.7-1.34,2-3.23,4-3.33,6.44-0.34,8.67-.61,17.32,2.73,25.68,2.79,7,2.58,7.13-4,10.78a20.7,20.7,0,0,0-11.15,16.12c-0.64,4.51.86,8.47,1.64,12.65a4.21,4.21,0,0,1-1.68-.75c-1.43-1.09-1.74-2.9-1.92-4.5A54.42,54.42,0,0,1,302.32,527.83Z" transform="translate(-302.05 -424.84)"/><path class="cls-2" d="M440,483.13c0.86,9.68-3.13,17.49-9.9,23.86-5.11,4.8-6.57,10.41-7.31,17.22-1.55,14.16-8.5,25.47-21.16,32.8a6.8,6.8,0,0,1-3.22.66c-16.22,1.15-32.41-.12-48.61-0.64-8.21-.27-16.4-0.59-24.57-1.58a35.57,35.57,0,0,1-13-4.39c-1.41,1.11-.3,1.51.52,2.14,4.36,3.33,9.59,4.11,14.75,4.76,7.27,0.91,14.64,2.28,21.87,1.86,8.89-.51,17.63.93,26.47,0.61,7-.25,14,0.9,21,0.7s11.57-4.64,16.73-8.14c4.05-2.75,6-7.49,8.55-11.34a23.81,23.81,0,0,0,3.91-11.78c0.16-4.66,1.9-9.16,1.59-13.94-0.11-1.7,1.66-2.85,2.8-3.79,4.09-3.37,6.55-8.05,9.2-12.31,2.87-4.6,3.49-10.4,2.37-16C441.81,482.53,440.88,482.84,440,483.13Z" transform="translate(-302.05 -424.84)"/><path class="cls-2" d="M416.35,432.75l0.43,0.1c2,5,3.84,10.07,5.47,15.22,0.83,2.61,1.41,5.43,3,7.77,0,0.2.06,0.4,0.1,0.6a5,5,0,0,0,1.78,2.63,141.63,141.63,0,0,0,3.08,2.27,5.31,5.31,0,0,0,2.26,2.25l0,0,0.77,0.77,0,0,0.77,0.77,0,0,0.77,0.77,0,0,0.85,0.76c3.07,2.91,3.28,7.17,5,10.72a3.38,3.38,0,0,1-.43,3.52c-2.35-7.84-7.34-13.91-13-19.59-2.52-2.53-4.81-5.21-5.59-9a66.72,66.72,0,0,0-7.83-19.92C414.57,432.45,415.46,432.57,416.35,432.75Z" transform="translate(-302.05 -424.84)"/><text class="cls-3" transform="translate(29.95 56.22) scale(1.6 1)">feels <tspan x="0" y="28.8">chat</tspan><tspan x="0" y="57.6">man</tspan></text><path class="cls-2" d="M312.28,551.07l-4.75-4.16-1.62-3.21-1.85-.75,1.4,4.08,6.29,5.4Z" transform="translate(-302.05 -424.84)"/><path class="cls-2" d="M440.53,477.62c-3-1.46-.75,1.6-0.81,4.41,0,1.78.59,2.69,0.37,1.59a8.83,8.83,0,0,1,1.86-.2L441.63,481A14.68,14.68,0,0,1,440.53,477.62Z" transform="translate(-302.05 -424.84)"/><path class="cls-2" d="M406.89,432l-1.48-2-2-2.5-1.92-1.12-1.87-1.12H404l5,6.77Z" transform="translate(-302.05 -424.84)"/><path class="cls-2" d="M416.77,432.85l-3.41-4.35-2.94-2.06-3-1.16-3.22-.44c-3.68.32-4.5,0.48-4.5,0.56a22.61,22.61,0,0,1,5.18.59,15.46,15.46,0,0,1,5.2,2.72,18.38,18.38,0,0,1,3.64,3.63Z" transform="translate(-302.05 -424.84)"/><path class="cls-2" d="M399.7,426.78" transform="translate(-302.05 -424.84)"/><path class="cls-2" d="M401.43,429.95" transform="translate(-302.05 -424.84)"/><path class="cls-2" d="M413.18,432.66" transform="translate(-302.05 -424.84)"/><path class="cls-2" d="M303.66,481.59" transform="translate(-302.05 -424.84)"/></svg>