<svg id="Layer_1" data-name="Layer 1" xmlns="http://www.w3.org/2000/svg" viewBox="0 0 438.19 377.57"><defs><style>.cls-1{fill:#12170f;}.cls-2{fill:#935c24;}.cls-3{fill:#12150e;}.cls-4{fill:#54873a;}.cls-5{fill:#fcfcfc;}.cls-6{fill:#548639;}.cls-7{fill:#d10555;}.cls-8{fill:#daadc0;}.cls-9{fill:#d9adbf;}.cls-10{fill:#10150e;}.cls-11{fill:#f9f9f9;}</style></defs><title>feelsgoodmanColor</title><path class="cls-1" d="M612,164.72c2.6,1,3.7,3.42,4.89,5.61,2.93,5.43,3.84,11.47,4.72,17.46,1.06,7.15,2,14.33,2.79,21.51,0.69,6.23-1.07,12-3.82,17.53-3.37,6.76-6.94,13.43-8.09,21a4.2,4.2,0,0,1-.2.72c-0.61,1.77-2.38,2.05-3.55,3-0.76.63-.49,2.71-2.14,3.62-4.71,2.63-9.31,5.45-14,8.19-3.3,1.94-3.56,3.29-1.34,6.33,5.29,7.26,10.33,14.7,15.85,21.78a175.67,175.67,0,0,1,11,16c4.19,6.81,2.78,13.52-3.62,18.45-0.23-4.51,1.09-8.92.92-13.41-0.06-1.59.81-3.51-1.48-4.55-2.09-1-3.16.6-4.35,1.55a92.27,92.27,0,0,1-27.54,14.86,226.61,226.61,0,0,1-47.19,11.24c-10.22,1.25-20.41,3-30.74,3-13-.06-26,0.25-39-0.33-10.32-.46-20.48-2.22-30.67-3.56-11.17-1.47-22.13-4.46-33.24-6.49a493.23,493.23,0,0,1-62.35-15.54c-11.88-3.82-23.64-8-35.48-11.91-5.92-2-11.88-2.37-17.81.08-11.62,4.81-14.46,21.46-9,31.24,4.17,7.47,10.36,13.43,16.19,19.57a255.26,255.26,0,0,0,58.24,45.91c28.53,16.37,58.58,28.93,91.1,34.92,8.75,1.61,17.44,1.82,26.12-1,10.24-3.37,20.4-7.09,31.31-8.06,6.52-.58,12.92-2.17,19.46-2.86,4.06-.43,8.14.64,12.14-0.48a56,56,0,0,1,16-1.84,124.71,124.71,0,0,0,22.87-1.51c10.39-1.77,19.47-5.78,26.41-14.17,7.36-8.89,8.63-19,3.12-29.21-1.66-3.07-1.62-3.19,1.5-4.7a72.48,72.48,0,0,1,6.9,13.22c2.5,6.75.37,13.09-4.05,18.11-5.68,6.44-10.71,13.32-16,20.05-6,7.59-12.82,14.43-19.48,21.43a18.77,18.77,0,0,1-9.33,5.47c-14.87,3.62-29.26,8.77-43.69,13.79-7.34,2.56-14.94,2-22.47,2.48-6.42.37-12.72,1.11-18.83,3.29-6.72,2.4-13.74,2-20.75,1.85-19.15-.33-38.31-0.18-57.45-0.78-24.25-.76-48.3-3.21-71.39-11.46-25.59-9.14-49.1-22.2-71.84-37-12.18-7.9-23.14-17.4-35.17-25.39-10.9-7.24-18.46-17.38-26.11-27.52-4.36-5.78-5.15-12.6-5-19.69,0.2-7.57.13-15.15-.06-22.72a281.15,281.15,0,0,1,1.71-34.14c0.8-8.28,1.52-16.58,2.54-24.84,1.54-12.39,6.66-23.37,13.56-33.66,5.91-8.82,13.44-16.31,19.79-24.75,2-2.59,3.7-5.33,5.66-7.92,4-5.28,5.79-11.27,6.37-17.81a44.89,44.89,0,0,1,5.11-17.36c7.68-14.29,16.91-27.51,28.62-38.8,10.12-9.76,22.34-16.42,35-22.24,8.21-3.77,16.23-8.17,25.26-9.73,22.85-4,44.41-1.38,63.59,12.94,5.54,4.13,11.59,7.49,17.44,11.15,4.79,3,9.64,1.68,14.26-.64a116.26,116.26,0,0,1,17.87-7.56c15.61-4.78,31.42-6.4,47.5-2.71a48.68,48.68,0,0,1,12.52,4.83,499.63,499.63,0,0,0,62.65,29.28c13.44,5.11,26.1,12,38.89,18.52,2.86,1.47,5.89,3,7.26,6.31a7,7,0,0,1-4.93-1.32,42.62,42.62,0,0,0-6.81-3.64c-10.8-4.67-22.32-5.67-33.85-6.46a154.73,154.73,0,0,0-21.19.51c-4.56.31-9.13,0.52-13.66,1.07A136.82,136.82,0,0,0,492.2,166c-2.73,1.21-5.56,2.31-7.73,4.49-1.48,1.48-1.22,2.57.75,3.32a4.22,4.22,0,0,0,2.68.3c2-.54,4.06-0.91,6-1.58,13.07-4.45,26.2-8.88,40.11-9.51,13.62-.62,27.25-1.42,40.9-0.32,11.23,0.9,22,3.42,32.06,8.53a9.23,9.23,0,0,0,3.33,1c2.77,0.23,3.9-1.44,2.65-3.89A7.17,7.17,0,0,1,612,164.72ZM440.5,161.78a145.05,145.05,0,0,0-34.35,1c-19,2.91-37.42,7.66-54.45,16.94a74.33,74.33,0,0,1-19.79,7.35c-4.16.91-8.41,1.08-12.61,1.7-1.71.25-3.26,0.95-3.81,2.77a5,5,0,0,0,1.28,5.29,7.31,7.31,0,0,0,3.14,2c9.8,2.73,17.08,9,23.55,16.51,9.2,10.65,19.73,19.79,32.9,25,19.93,7.83,40.48,12.89,62.23,11.65a81.3,81.3,0,0,0,28.48-6.55,29.8,29.8,0,0,0,8.73-5.7,40.83,40.83,0,0,0,9.83-45.2c-7.23-17.53-20.7-27.6-39.1-31.35-0.07-1.73.89-2.4,2.48-2.35a130.59,130.59,0,0,1,16.64,1.3,59.54,59.54,0,0,1,7.66,2.2,2,2,0,0,0,2.46-.64,1.68,1.68,0,0,0-.37-2.27c-3.51-3-6.77-6.33-11.53-7.61a137.59,137.59,0,0,0-20.79-3.89c-5.86-.63-11.75-1.38-17.66-1-10.78.67-21.51,1.85-32.2,3.38a163.52,163.52,0,0,0-33.59,8.19c-7.8,2.88-15.52,6-23.29,8.95-3.2,1.23-6.6,1.66-9.93,2.35-1,.2-2.29.35-2.65-0.75s1-1.32,1.76-1.7c1.35-.65,2.74-1.2,4.12-1.8,10.29-4.48,20.27-9.74,31-13.25,19.05-6.24,38.77-8.31,58.69-8.91,7.82-.24,15.59-1,23.37-1.64,0.86-.07,1.68-0.3,1.82-1.35s-0.61-1.48-1.41-1.79c-1.55-.6-3.1-1.2-4.67-1.74-15.8-5.4-32.15-7.56-48.75-8.05-13.7-.4-27.41-1.61-41.1,0-12.84,1.48-25.44,3.9-37,10.26-5.54,3-11.32,5.65-17,8.42-0.8.39-1.84,1-2.4-.14s0.58-1.42,1.23-1.86c2.28-1.54,4.67-2.91,6.85-4.56,14.83-11.27,31.65-17,50.14-18.17,5.71-.38,11.5-0.25,17.11-1.55a83.27,83.27,0,0,1,16.8-2c6.56-.16,13.12-0.64,19.67-1a2.31,2.31,0,0,0,2.43-1.76c0.34-1.38-.65-1.9-1.69-2.37-7.43-3.35-14.86-6.71-22.69-9.07-11-3.32-22.1-6.08-33.7-6.31-7.18-.14-14.27.74-21.37,1.54a77.8,77.8,0,0,0-33.18,11.47c-13.44,8.45-24.31,19.62-33.78,32.19-7.71,10.23-14.13,21.19-17.35,33.75-2.17,8.46-3.23,17.13-4.61,25.73-0.56,3.51-1.6,4.54-5,4.36a11.2,11.2,0,0,0-8.89,3.8,119,119,0,0,0-8,8.93c-7.83,10-14.35,20.61-17.19,33.18-2.08,9.18-2.81,18.54-4,27.85A343.53,343.53,0,0,0,192.09,323c-0.09,7.48.06,15,.48,22.46a50.6,50.6,0,0,0,8.54,26.24c6.29,9.2,14.7,16.3,23.43,23,14.22,10.91,29.37,20.46,44.77,29.57a359.35,359.35,0,0,0,59.34,28.45c19,7,38.83,8.71,58.81,9.42,9.57,0.34,19.16.22,28.74,0.16,4.29,0,8.66.7,12.87-.92a2.64,2.64,0,0,1,2.54.77c2.53,2,5.42,1.92,8.33,1.35a50.62,50.62,0,0,1,13.63-1.1c5.5,0.43,11,.23,16.47.29a23.22,23.22,0,0,0,7.82-1.29c11.46-3.91,23.1-6.92,35.34-6.64a17.24,17.24,0,0,0,10-2.62c10.68-6.92,22.67-10.2,34.9-12.88a14,14,0,0,0,10.18-8.77c1.86-4.42-.09-8.8-4.12-9.61-5-1-10-1.37-15,.13a69.13,69.13,0,0,1-18.2,2.62c-5.38.12-10.77-.57-16.15,0.36-9.13,1.58-17.85,4.62-26.7,7.19-8.36,2.43-16.92,4.13-25,7.5-5.76,2.39-11.79.85-17.68-.41-14.38-3.07-28.83-5.79-42.86-10.29-21.19-6.8-40.49-17.5-59-29.6A326,326,0,0,1,288,352.6c-5.63-5.81-11.22-11.61-15.78-18.32a20.54,20.54,0,0,1-3.8-11.17c-0.26-9.23,3.66-16.53,10.13-22.74,6.91-6.64,14.56-9,23.94-5.38a559.92,559.92,0,0,0,60.12,19.08c18.9,4.85,38,9,57,13.45,19.5,4.6,39.15,6.37,59,6.7,8.74,0.14,17.47.05,26.21-.33,7.48-.33,14.94-0.88,22.37-1.69,13.9-1.53,27.51-4.61,41-8.07,11-2.83,21.52-6.9,30.76-13.81,6.05-4.53,7.41-9.08,4.06-15.26a86,86,0,0,0-8-12.35c-4-5.1-8.81-8.39-15.83-7.52-6.59.82-13.26,1-19.86,1.68a101.58,101.58,0,0,0-19,4c-4,1.25-4.7,2.72-3.17,6.72a42.07,42.07,0,0,0,3.14,6.79c0.43,0.71.81,1.5,0,2.26s-1.74.3-2.42-.29a24.77,24.77,0,0,1-3.95-4.15c-9.77-13.52-20.09-26.56-32.79-37.52a105.48,105.48,0,0,0-14-10.45c-2.75-1.67-4.16-1.19-5.59,1.67-0.41.82-.78,1.66-1.14,2.5a30.42,30.42,0,0,1-11.18,13.4c-10.08,6.9-20.63,12.81-32.28,16.65-11.09,3.65-22.29,6.69-34.08,6.82-13.71.15-27.13-2.3-40.51-4.82-11.06-2.08-21.88-5-32-10.22-3.65-1.89-6.8-4.48-10.07-6.91a2,2,0,0,1-.69-2.86c0.74-1.25,1.71-.42,2.62-0.1a68.85,68.85,0,0,1,7.51,2.61c10,4.9,20.8,7.35,31.47,10.22a144.61,144.61,0,0,0,58.81,3.51,6.94,6.94,0,0,0,4.24-1.94c0.47-.5.95-1.51-0.08-1.44-2.85.2-5-2.09-7.62-2.08-10.58.06-20.5-3.14-30.39-6.24-7.54-2.37-14.57-6.12-21.76-9.39C352,250,340.32,242.93,331.06,232.52c-2-2.23-3.75-4.67-5.61-7a1.71,1.71,0,0,1,0-2.47c0.82-.87,1.68-0.55,2.46,0a13.15,13.15,0,0,1,1.63,1.54,117.59,117.59,0,0,0,11.65,10.94A140,140,0,0,0,394.43,262c15.93,4,32,6.91,48.57,4.28,8.77-1.39,17-4.6,25.06-8.12,1.67-.73,4.47-1.82,3.28-4.47-1-2.32-3.73-1.71-5.62-1.2-12.43,3.37-25.19,3.23-37.88,3.63a122.11,122.11,0,0,1-30.21-2.84c-12.77-2.81-25-6.85-36-14.23-6.24-4.21-11.61-9.44-16.93-14.73-9.32-9.28-18.36-18.89-32-22.18-3.26-.79-4.49-4.23-4.78-7.58-0.28-3.19,1.22-5.45,3.9-7a34.44,34.44,0,0,1,9.77-3.64c14.71-3.2,28.43-9.28,42.37-14.71,10.33-4,20.75-7.78,31.86-8.81,13.93-1.29,27.94-1,41.92-1.19C439.51,159.22,440.48,160,440.5,161.78Zm132.41,81.73c2.49,0,5-.05,7.48,0,7.12,0.18,14.08-.48,20.79-3.19,8.9-3.6,14.64-9.61,16.48-19.32a76.77,76.77,0,0,0,.87-24.07c-1.16-9.23-5.91-16.1-14.32-20.27a92.06,92.06,0,0,0-31.75-8.85,190.34,190.34,0,0,0-37.87,0,157.85,157.85,0,0,0-34.11,7c-6.88,2.25-9.66,6.9-8.33,13.8a228.58,228.58,0,0,1,3.25,24.47A16.55,16.55,0,0,0,501.48,225a57.48,57.48,0,0,0,18.66,10.28C537.24,241.12,554.92,243.27,572.91,243.51ZM472,109.32a95.93,95.93,0,0,0-12.29,1.27c-11,2-21.12,6.43-31.3,10.74-3.15,1.33-3.43,4.84-.62,7a18.22,18.22,0,0,0,5.12,2.55,113.81,113.81,0,0,1,13.54,5.74c13.21,6.64,25.49,14.87,38.09,22.53,2.59,1.58,5,2.23,8,.92a79,79,0,0,1,7.43-2.75C510,154,520.29,152,530.61,150c7-1.32,13.81-3.44,20.89-4.33,1.66-.21,3.3-0.86,3.51-2.93s-1.21-2.84-2.75-3.35c-3.32-1.11-6.83-1.17-10.26-1.65-5.4-.76-10.85-1.14-16.27-1.74a133.4,133.4,0,0,0-14.14-.45,90.84,90.84,0,0,0-13.88.58c-6.62,1-13.38,1-20,2.27-1,.2-1.84.45-2.19-0.76s0.56-1.57,1.47-1.88c2-.69,4.1-1.31,6.1-2.1,8.08-3.2,16-6.73,24.67-8.26a16.09,16.09,0,0,0,3.37-.86c2.29-1,2.05-3,1.82-4.92s-1.82-1.29-2.93-1.28a8.76,8.76,0,0,1-4.47-1.31C495.58,111.39,484.69,109.41,472,109.32Zm72.3,162.49a33.7,33.7,0,0,0,5.89-.84c4.31-.85,8.6-1.86,12.93-2.63,1.64-.29,3.37-0.39,3.62-2.34s-1.43-2.34-2.88-2.86c-10-3.57-20.47-5.72-30.77-8.34-7.25-1.84-14.57-3.45-21.21-7.1-0.55-.3-1.5-0.48-1.3-1.29,0.25-1,1.23-.55,1.92-0.56a4.39,4.39,0,0,1,1,.2c16.54,3.5,32.71,8.75,49.9,9,9.19,0.14,18.38,1.56,27.59.66a49.82,49.82,0,0,0,15.64-3.93c2.11-.94,2.16-2.72,1.74-4.41s-2-1.68-3.5-1.35c-0.89.2-1.79,0.36-2.67,0.6-13.43,3.71-27,3.91-40.79,2.28-7.43-.88-14.74-2.38-22.1-3.66-9.51-1.66-18.91-3.61-27.65-8-4.52-2.28-9.26-4.13-13.94-6.09-1.6-.67-3.29-0.85-4.51.81a3.63,3.63,0,0,0,.25,4.81c1.6,2,3.24,4,5,5.88,7.33,7.79,15.63,14.45,24.15,20.86C528.75,268.09,535.34,271.73,544.34,271.8Z" transform="translate(-186.41 -90.95)"/><path class="cls-2" d="M601.13,368.71c-3.12,1.5-3.16,1.63-1.5,4.7,5.51,10.17,4.24,20.31-3.12,29.21-6.94,8.39-16,12.4-26.41,14.17a124.71,124.71,0,0,1-22.87,1.51,56,56,0,0,0-16,1.84c-4,1.12-8.07.05-12.14,0.48-6.54.69-12.94,2.28-19.46,2.86-10.91,1-21.07,4.69-31.31,8.06-8.68,2.86-17.37,2.65-26.12,1-32.52-6-62.57-18.55-91.1-34.92a255.26,255.26,0,0,1-58.24-45.91c-5.83-6.14-12-12.1-16.19-19.57-5.45-9.78-2.61-26.43,9-31.24,5.92-2.45,11.89-2,17.81-.08,11.84,3.94,23.6,8.1,35.48,11.91a493.23,493.23,0,0,0,62.35,15.54c11.11,2,22.07,5,33.24,6.49,10.19,1.34,20.35,3.1,30.67,3.56,13,0.58,26,.27,39,0.33,10.33,0,20.52-1.74,30.74-3a226.61,226.61,0,0,0,47.19-11.24,92.27,92.27,0,0,0,27.54-14.86c1.2-1,2.26-2.51,4.35-1.55,2.29,1,1.42,3,1.48,4.55,0.17,4.5-1.15,8.9-.92,13.41-1.24,2.5-2.76,4.73-5.48,5.83-0.83.06-1.66,0.08-2.48,0.2-5.72.84-10.94,3.37-16.44,5-8.38,2.43-16.41,6-25,7.8-13.82,2.89-27.74,5.25-41.69,7.39-10,1.54-20,3.42-30.17,3.53-17.57.18-35.14,0.4-52.71-.27a222.49,222.49,0,0,1-30.27-2.79,582.13,582.13,0,0,1-59.21-13.74c-11.12-3.19-21.92-7.35-32.94-10.81a117.85,117.85,0,0,0-12.56-3.17c-3.93-.77-5.92.86-6,4.86a10.27,10.27,0,0,0,2.31,6.7A68.5,68.5,0,0,0,315,348.77c12.81,9.47,26.48,17.58,40.27,25.52,20.11,11.57,40.77,21.86,63.42,27.6,14.42,3.65,28.79,7.71,43.76,8.2,11.8,0.39,23.62.17,35.43,0.25a199,199,0,0,0,35.23-3.08c12.46-2.15,24.88-4.5,36.59-9.49,4.67-2,9.4-4,13.13-7.57,3.31-3.2,3.72-6.9,1.43-10.9-1.22-2.13-3.09-3.7-4.8-5.4-7.29-7.22-15.39-13.49-23.23-20.07-0.71-.6-1.6-1.12-1.07-2.22s1.5-.9,2.41-0.7a20.18,20.18,0,0,0,6.22.18c5.93-.54,11.78-0.47,17.5,1.49,1.2,0.41,2.47.7,3.28-.78A71.28,71.28,0,0,1,601.13,368.71Z" transform="translate(-186.41 -90.95)"/><path class="cls-3" d="M584.57,351.81c-0.8,1.47-2.08,1.19-3.28.78-5.71-2-11.56-2-17.5-1.49a20.18,20.18,0,0,1-6.22-.18c-0.92-.2-1.91-0.34-2.41.7s0.36,1.63,1.07,2.22c7.84,6.58,15.95,12.85,23.23,20.07,1.71,1.7,3.58,3.26,4.8,5.4,2.29,4,1.88,7.69-1.43,10.9-3.73,3.6-8.46,5.58-13.13,7.57-11.72,5-24.14,7.34-36.59,9.49a199,199,0,0,1-35.23,3.08c-11.81-.08-23.63.14-35.43-0.25-15-.49-29.34-4.55-43.76-8.2-22.65-5.74-43.31-16-63.42-27.6-13.79-7.93-27.46-16-40.27-25.52a68.5,68.5,0,0,1-13.06-12.29,10.27,10.27,0,0,1-2.31-6.7c0.06-4,2-5.63,6-4.86a117.85,117.85,0,0,1,12.56,3.17c11,3.46,21.82,7.62,32.94,10.81a582.13,582.13,0,0,0,59.21,13.74,222.49,222.49,0,0,0,30.27,2.79c17.57,0.68,35.15.46,52.71,0.27,10.14-.11,20.16-2,30.17-3.53,14-2.14,27.87-4.5,41.69-7.39,8.58-1.79,16.61-5.37,25-7.8,5.5-1.59,10.72-4.11,16.44-5,0.82-.12,1.65-0.13,2.48-0.2-4.82,4.53-10.89,6.82-16.77,9.45-1.89.84-3.81,1.65-5.61,2.66C583.21,345.87,582.58,348.41,584.57,351.81ZM480.88,396.88c8.59,0,16-3,22.75-8.26,4.89-3.85,5.3-8.91,4.33-14.42-0.84-4.75-4.08-7.23-8.4-8.62-0.87-.28-1.74-0.56-2.62-0.8-8.74-2.35-17.72-3.07-26.68-3.34-13.31-.4-26.59-0.67-39.86-2a473.55,473.55,0,0,1-56.27-9.52c-15.92-3.59-31.28-9.1-47-13.25-5.2-1.37-10.24-3.56-15.77-3.42-1.71,0-3.53.21-4.17,2.08s0.68,3.12,2,4.22c0.76,0.64,1.58,1.23,2.38,1.82a273.37,273.37,0,0,0,24.43,16c5.89,3.44,11.6,7.22,18,9.68,5.16,2,10.5,2.42,15.47-.33a23.83,23.83,0,0,1,12-2.7c10.06,0,19.56,2.7,28.79,6.41,17.36,7,34.39,14.73,51.59,22.1C467.91,395.08,474.18,396.89,480.88,396.88Zm24.19,10.29c2.94,0.23,5.78-.46,8.66-0.89a268.54,268.54,0,0,0,39.69-8.51c6.27-1.92,12.61-3.69,18.56-6.48,3.91-1.83,5.66-5.2,4.87-8.62a12.27,12.27,0,0,0-2.69-5c-6.46-7.87-14.39-14-22.82-19.6a14.31,14.31,0,0,0-8-2.3c-8.37-.07-16.52,1.72-24.76,2.8a23.32,23.32,0,0,0-7.84,2.36c-2.69,1.4-3,2.51-1.12,4.83,2.61,3.25,5,6.67,7.29,10.12,3.1,4.6,3.1,5.94-.12,10.49-5,7.12-12.27,11.88-18.8,17.39-0.57.48-1.43,0.79-1.31,1.65,0.14,1,1.17,1.12,1.94,1.25A25.12,25.12,0,0,0,505.07,407.17ZM385.74,372.82a27.22,27.22,0,0,0-4,0c-2,.31-4.06.87-6.09,1.29-1.45.3-2.88,0.74-3.09,2.42s1.27,2.36,2.49,3.07c0.29,0.17.59,0.3,0.89,0.45,23.27,11.22,47.4,19.58,73.28,22.16,1,0.1,1.85.13,2.28-1a1.85,1.85,0,0,0-1-2.5c-7.63-4.39-15.16-9-22.93-13.08a119.27,119.27,0,0,0-19.59-8C400.73,375.4,393.54,372.67,385.74,372.82Z" transform="translate(-186.41 -90.95)"/><path class="cls-4" d="M440.5,161.78c0-1.78-1-2.56-2.69-2.54-14,.15-28-0.11-41.92,1.19-11.1,1-21.53,4.78-31.86,8.81-13.94,5.43-27.66,11.51-42.37,14.71a34.44,34.44,0,0,0-9.77,3.64c-2.68,1.52-4.17,3.79-3.9,7,0.29,3.35,1.52,6.79,4.78,7.58,13.59,3.3,22.63,12.9,32,22.18,5.32,5.29,10.69,10.52,16.93,14.73,10.94,7.38,23.2,11.42,36,14.23a122.11,122.11,0,0,0,30.21,2.84c12.69-.41,25.45-0.27,37.88-3.63,1.89-.51,4.59-1.11,5.62,1.2,1.18,2.66-1.62,3.75-3.28,4.47-8.07,3.52-16.29,6.73-25.06,8.12-16.54,2.63-32.64-.25-48.57-4.28a140,140,0,0,1-53.24-26.48,117.59,117.59,0,0,1-11.65-10.94,13.15,13.15,0,0,0-1.63-1.54c-0.77-.57-1.63-0.9-2.46,0a1.71,1.71,0,0,0,0,2.47c1.86,2.35,3.62,4.79,5.61,7C340.32,242.93,352,250,364.5,255.65c7.19,3.27,14.21,7,21.76,9.39,9.89,3.11,19.81,6.3,30.39,6.24,2.67,0,4.77,2.28,7.62,2.08,1-.07.55,0.94,0.08,1.44a6.94,6.94,0,0,1-4.24,1.94,144.61,144.61,0,0,1-58.81-3.51c-10.67-2.88-21.45-5.32-31.47-10.22a68.85,68.85,0,0,0-7.51-2.61c-0.91-.32-1.88-1.15-2.62.1a2,2,0,0,0,.69,2.86c3.27,2.43,6.43,5,10.07,6.91,10.07,5.23,20.9,8.13,32,10.22,13.39,2.52,26.8,5,40.51,4.82,11.79-.13,23-3.17,34.08-6.82,11.65-3.84,22.2-9.75,32.28-16.65a30.42,30.42,0,0,0,11.18-13.4c0.36-.84.73-1.68,1.14-2.5,1.43-2.86,2.84-3.34,5.59-1.67a105.48,105.48,0,0,1,14,10.45c12.7,11,23,24,32.79,37.52a24.77,24.77,0,0,0,3.95,4.15c0.68,0.59,1.49,1.16,2.42.29s0.43-1.55,0-2.26a42.07,42.07,0,0,1-3.14-6.79c-1.53-4-.88-5.48,3.17-6.72a101.58,101.58,0,0,1,19-4c6.61-.71,13.27-0.87,19.86-1.68,7-.87,11.81,2.42,15.83,7.52a86,86,0,0,1,8,12.35c3.35,6.18,2,10.73-4.06,15.26-9.23,6.91-19.72,11-30.76,13.81-13.52,3.46-27.13,6.54-41,8.07-7.43.82-14.89,1.36-22.37,1.69-8.74.39-17.48,0.48-26.21,0.33-19.89-.33-39.54-2.1-59-6.7-19-4.48-38.07-8.6-57-13.45A559.92,559.92,0,0,1,302.5,295c-9.38-3.57-17-1.26-23.94,5.38-6.47,6.21-10.39,13.51-10.13,22.74a20.54,20.54,0,0,0,3.8,11.17c4.56,6.71,10.15,12.51,15.78,18.32a326,326,0,0,0,55.57,45.82c18.46,12.1,37.76,22.8,59,29.6,14,4.51,28.48,7.23,42.86,10.29,5.89,1.26,11.92,2.8,17.68.41,8.12-3.37,16.67-5.08,25-7.5,8.85-2.57,17.58-5.61,26.7-7.19,5.38-.93,10.77-0.24,16.15-0.36a69.13,69.13,0,0,0,18.2-2.62c5.05-1.5,10-1.12,15-.13,4,0.8,6,5.19,4.12,9.61a14,14,0,0,1-10.18,8.77c-12.23,2.69-24.22,6-34.9,12.88a17.24,17.24,0,0,1-10,2.62c-12.24-.28-23.89,2.73-35.34,6.64a23.22,23.22,0,0,1-7.82,1.29c-5.49-.06-11,0.15-16.47-0.29a50.62,50.62,0,0,0-13.63,1.1c-2.91.57-5.8,0.69-8.33-1.35a2.64,2.64,0,0,0-2.54-.77c-4.21,1.62-8.58.88-12.87,0.92-9.58.07-19.17,0.18-28.74-.16-20-.71-39.8-2.45-58.81-9.42a359.35,359.35,0,0,1-59.34-28.45c-15.41-9.11-30.55-18.66-44.77-29.57-8.73-6.69-17.13-13.79-23.43-23a50.6,50.6,0,0,1-8.54-26.24c-0.42-7.47-.57-15-0.48-22.46a343.53,343.53,0,0,1,2.78-39.52c1.19-9.3,1.93-18.66,4-27.85,2.84-12.57,9.36-23.23,17.19-33.18a119,119,0,0,1,8-8.93,11.2,11.2,0,0,1,8.89-3.8c3.44,0.17,4.48-.85,5-4.36,1.38-8.61,2.44-17.27,4.61-25.73,3.22-12.56,9.64-23.52,17.35-33.75,9.47-12.57,20.34-23.74,33.78-32.19a77.8,77.8,0,0,1,33.18-11.47c7.11-.8,14.19-1.68,21.37-1.54,11.59,0.22,22.7,3,33.7,6.31,7.82,2.36,15.26,5.72,22.69,9.07,1,0.47,2,1,1.69,2.37a2.31,2.31,0,0,1-2.43,1.76c-6.56.32-13.11,0.8-19.67,1a83.27,83.27,0,0,0-16.8,2c-5.61,1.3-11.4,1.17-17.11,1.55-18.49,1.22-35.31,6.89-50.14,18.17-2.18,1.66-4.58,3-6.85,4.56-0.66.44-1.73,0.88-1.23,1.86s1.61,0.52,2.4.14c5.69-2.78,11.47-5.38,17-8.42,11.54-6.36,24.14-8.77,37-10.26,13.69-1.58,27.4-.38,41.1,0,16.6,0.49,33,2.65,48.75,8.05,1.57,0.54,3.13,1.14,4.67,1.74,0.81,0.31,1.54.75,1.41,1.79s-1,1.28-1.82,1.35c-7.79.62-15.55,1.41-23.37,1.64-19.91.6-39.64,2.66-58.69,8.91-10.7,3.51-20.67,8.76-31,13.25-1.37.6-2.77,1.14-4.12,1.8-0.76.37-2.13,0.55-1.76,1.7s1.68,0.95,2.65.75c3.33-.69,6.73-1.12,9.93-2.35,7.77-3,15.49-6.07,23.29-8.95a163.52,163.52,0,0,1,33.59-8.19c10.69-1.54,21.42-2.72,32.2-3.38,5.91-.37,11.8.38,17.66,1a137.59,137.59,0,0,1,20.79,3.89c4.76,1.27,8,4.57,11.53,7.61a1.68,1.68,0,0,1,.37,2.27,2,2,0,0,1-2.46.64,59.54,59.54,0,0,0-7.66-2.2,130.59,130.59,0,0,0-16.64-1.3c-1.59,0-2.55.62-2.48,2.35A7.9,7.9,0,0,1,440.5,161.78ZM271,287.87a1.81,1.81,0,0,0-.64-1.79c-0.82-.52-1.41,0-2,0.49-6.6,5.27-11.28,12.11-15.66,19.19-0.63,1-1.07,2.16.2,3.09s2-.2,2.7-0.91a98.92,98.92,0,0,0,14.72-18.76A14,14,0,0,0,271,287.87Z" transform="translate(-186.41 -90.95)"/><path class="cls-5" d="M440.5,161.78a7.9,7.9,0,0,0,6,1.35c18.4,3.76,31.87,13.82,39.1,31.35a40.83,40.83,0,0,1-9.83,45.2,29.8,29.8,0,0,1-8.73,5.7,81.3,81.3,0,0,1-28.48,6.55c-21.75,1.23-42.3-3.83-62.23-11.65-13.16-5.17-23.7-14.32-32.9-25-6.47-7.48-13.75-13.78-23.55-16.51a7.31,7.31,0,0,1-3.14-2,5,5,0,0,1-1.28-5.29c0.54-1.82,2.09-2.52,3.81-2.77,4.2-.61,8.45-0.79,12.61-1.7a74.33,74.33,0,0,0,19.79-7.35c17-9.28,35.45-14,54.45-16.94A145.05,145.05,0,0,1,440.5,161.78ZM453,206.84c0-2.33,0-3.91,0-5.49-0.45-13.68-10.6-23.56-24.27-23.65-20.5-.12-37.23,20.69-32.6,40.64,2.46,10.6,12,19.88,24.64,18.38a65.47,65.47,0,0,0,16.93-4c6.9-2.79,12-7.39,14.16-14.74A34.06,34.06,0,0,0,453,206.84Z" transform="translate(-186.41 -90.95)"/><path class="cls-5" d="M572.91,243.51c-18-.24-35.66-2.39-52.77-8.22A57.48,57.48,0,0,1,501.48,225a16.55,16.55,0,0,1-6.08-11.84,228.58,228.58,0,0,0-3.25-24.47c-1.33-6.91,1.45-11.55,8.33-13.8a157.85,157.85,0,0,1,34.11-7,190.34,190.34,0,0,1,37.87,0,92.06,92.06,0,0,1,31.75,8.85c8.4,4.17,13.15,11,14.32,20.27a76.77,76.77,0,0,1-.87,24.07c-1.84,9.71-7.58,15.72-16.48,19.32-6.71,2.71-13.67,3.37-20.79,3.19C577.9,243.45,575.4,243.51,572.91,243.51Zm-9-65.66a22.83,22.83,0,0,0-11.75,3.42c-9.53,6.3-15.47,21.12-13.15,32.27,1.77,8.56,11.22,18.52,22.16,16.85a13.67,13.67,0,0,1,5.19.49c7.16,1.7,12.18-.23,16-6.46a71.87,71.87,0,0,0,7.5-17.58,11,11,0,0,0-.45-7.32c-2.15-5.3-5.41-9.87-9-14.3C576.24,180.06,570.86,177.89,563.86,177.85Z" transform="translate(-186.41 -90.95)"/><path class="cls-4" d="M472,109.32c12.65,0.1,23.54,2.08,33.53,7.76a8.76,8.76,0,0,0,4.47,1.31c1.11,0,2.69-.73,2.93,1.28s0.47,4-1.82,4.92a16.09,16.09,0,0,1-3.37.86c-8.63,1.54-16.6,5.06-24.67,8.26-2,.79-4.06,1.41-6.1,2.1-0.9.31-1.83,0.65-1.47,1.88s1.18,1,2.19.76c6.59-1.31,13.35-1.28,20-2.27a90.84,90.84,0,0,1,13.88-.58,133.4,133.4,0,0,1,14.14.45c5.42,0.59,10.87,1,16.27,1.74,3.43,0.48,6.94.55,10.26,1.65,1.53,0.51,2.94,1.37,2.75,3.35s-1.84,2.73-3.51,2.93c-7.08.89-13.9,3-20.89,4.33C520.29,152,510,154,500,157.31a79,79,0,0,0-7.43,2.75c-2.91,1.3-5.36.65-8-.92-12.6-7.67-24.88-15.89-38.09-22.53a113.81,113.81,0,0,0-13.54-5.74,18.22,18.22,0,0,1-5.12-2.55c-2.81-2.14-2.52-5.65.62-7,10.18-4.31,20.33-8.73,31.3-10.74A95.93,95.93,0,0,1,472,109.32Z" transform="translate(-186.41 -90.95)"/><path class="cls-6" d="M544.34,271.8c-9-.07-15.59-3.71-21.72-8.31-8.52-6.4-16.82-13.06-24.15-20.86-1.77-1.88-3.41-3.86-5-5.88a3.63,3.63,0,0,1-.25-4.81c1.22-1.66,2.92-1.48,4.51-.81,4.68,2,9.42,3.8,13.94,6.09,8.74,4.42,18.14,6.37,27.65,8,7.35,1.28,14.66,2.78,22.1,3.66,13.75,1.63,27.36,1.43,40.79-2.28,0.88-.24,1.78-0.4,2.67-0.6,1.48-.33,3.07-0.38,3.5,1.35s0.37,3.47-1.74,4.41A49.82,49.82,0,0,1,591,255.72c-9.21.9-18.4-.53-27.59-0.66-17.19-.26-33.36-5.51-49.9-9a4.39,4.39,0,0,0-1-.2c-0.69,0-1.68-.44-1.92.56-0.2.81,0.75,1,1.3,1.29,6.64,3.65,14,5.26,21.21,7.1,10.3,2.62,20.73,4.77,30.77,8.34,1.45,0.52,3.12,1,2.88,2.86s-2,2-3.62,2.34c-4.33.77-8.61,1.78-12.93,2.63A33.7,33.7,0,0,1,544.34,271.8Z" transform="translate(-186.41 -90.95)"/><path class="cls-6" d="M612,164.72a7.17,7.17,0,0,0,.92,3.56c1.25,2.46.12,4.12-2.65,3.89a9.23,9.23,0,0,1-3.33-1c-10.09-5.12-20.83-7.64-32.06-8.53-13.65-1.09-27.28-.3-40.9.32-13.91.63-27,5.06-40.11,9.51-2,.67-4,1-6,1.58a4.22,4.22,0,0,1-2.68-.3c-2-.75-2.22-1.84-0.75-3.32,2.17-2.17,5-3.27,7.73-4.49a136.82,136.82,0,0,1,39.43-11.1c4.53-.55,9.1-0.76,13.66-1.07a154.73,154.73,0,0,1,21.19-.51c11.53,0.79,23,1.79,33.85,6.46a42.62,42.62,0,0,1,6.81,3.64,7,7,0,0,0,4.93,1.32Z" transform="translate(-186.41 -90.95)"/><path class="cls-7" d="M480.88,396.88c-6.7,0-13-1.79-19.06-4.4-17.2-7.36-34.23-15.12-51.59-22.1C401,366.67,391.49,364,381.44,364a23.83,23.83,0,0,0-12,2.7c-5,2.75-10.31,2.31-15.47.33-6.4-2.46-12.12-6.24-18-9.68a273.37,273.37,0,0,1-24.43-16c-0.8-.59-1.61-1.18-2.38-1.82-1.31-1.1-2.63-2.36-2-4.22s2.46-2,4.17-2.08c5.53-.14,10.58,2.05,15.77,3.42,15.75,4.15,31.11,9.66,47,13.25a473.55,473.55,0,0,0,56.27,9.52c13.27,1.35,26.56,1.62,39.86,2,9,0.27,17.94,1,26.68,3.34,0.88,0.24,1.75.52,2.62,0.8,4.32,1.39,7.57,3.87,8.4,8.62,1,5.51.56,10.57-4.33,14.42C496.93,393.89,489.47,396.89,480.88,396.88Z" transform="translate(-186.41 -90.95)"/><path class="cls-8" d="M505.07,407.17a25.17,25.17,0,0,1-6.45-.5c-0.77-.13-1.8-0.23-1.94-1.25-0.12-.86.74-1.17,1.31-1.65,6.53-5.51,13.76-10.27,18.8-17.39,3.22-4.56,3.23-5.9.12-10.49-2.33-3.45-4.68-6.87-7.29-10.12-1.86-2.32-1.58-3.43,1.12-4.83a23.32,23.32,0,0,1,7.84-2.36c8.24-1.08,16.39-2.86,24.76-2.8a14.31,14.31,0,0,1,8,2.3c8.43,5.58,16.36,11.73,22.82,19.6a12.27,12.27,0,0,1,2.69,5c0.78,3.42-1,6.79-4.87,8.62-6,2.79-12.29,4.56-18.56,6.48a268.54,268.54,0,0,1-39.69,8.51C510.85,406.7,508,407.4,505.07,407.17Z" transform="translate(-186.41 -90.95)"/><path class="cls-9" d="M385.74,372.82c7.8-.15,15,2.58,22.26,4.91a119.27,119.27,0,0,1,19.59,8c7.77,4.13,15.3,8.7,22.93,13.08a1.85,1.85,0,0,1,1,2.5c-0.43,1.1-1.32,1.07-2.28,1-25.88-2.58-50-10.94-73.28-22.16-0.3-.14-0.6-0.28-0.89-0.45-1.22-.71-2.7-1.34-2.49-3.07s1.64-2.12,3.09-2.42c2-.42,4-1,6.09-1.29A27.22,27.22,0,0,1,385.74,372.82Z" transform="translate(-186.41 -90.95)"/><path class="cls-1" d="M271,287.87a14,14,0,0,1-.67,1.32,98.92,98.92,0,0,1-14.72,18.76c-0.73.71-1.39,1.86-2.7,0.91s-0.83-2.07-.2-3.09c4.38-7.08,9.06-13.92,15.66-19.19,0.58-.46,1.18-1,2-0.49A1.81,1.81,0,0,1,271,287.87Z" transform="translate(-186.41 -90.95)"/><path class="cls-10" d="M453,206.84A34.06,34.06,0,0,1,451.85,218c-2.18,7.35-7.26,11.95-14.16,14.74a65.47,65.47,0,0,1-16.93,4c-12.59,1.49-22.18-7.78-24.64-18.38-4.63-19.95,12.1-40.76,32.6-40.64,13.67,0.08,23.82,10,24.27,23.65C453,202.92,453,204.51,453,206.84Zm-30.51,4a11.12,11.12,0,0,0,3.16,7.4c1.88,1.89,4.08,2.23,6.05.87a32.91,32.91,0,0,0,8.08-8,3.54,3.54,0,0,0-.23-4.77,13.25,13.25,0,0,0-6.92-4.16C426.87,200.5,422.53,203.8,422.49,210.81Z" transform="translate(-186.41 -90.95)"/><path class="cls-10" d="M563.86,177.85c7,0,12.38,2.21,16.51,7.36,3.56,4.43,6.82,9,9,14.3a11,11,0,0,1,.45,7.32,71.87,71.87,0,0,1-7.5,17.58c-3.8,6.24-8.82,8.16-16,6.46a13.67,13.67,0,0,0-5.19-.49c-10.94,1.67-20.38-8.3-22.16-16.85-2.31-11.15,3.62-26,13.15-32.27A22.83,22.83,0,0,1,563.86,177.85Zm3.84,38.44c3.2,0,5.51-.39,7.05-1.18a5.51,5.51,0,0,0,.65-9.14c-4.07-2.87-10.65-1.44-13.15,2.85s-0.6,7.45,4.21,7.48h1.25Z" transform="translate(-186.41 -90.95)"/><path class="cls-11" d="M422.49,210.81c0-7,4.38-10.31,10.14-8.68a13.25,13.25,0,0,1,6.92,4.16,3.54,3.54,0,0,1,.23,4.77,32.91,32.91,0,0,1-8.08,8c-2,1.36-4.17,1-6.05-.87A11.12,11.12,0,0,1,422.49,210.81Z" transform="translate(-186.41 -90.95)"/><path class="cls-11" d="M567.7,216.28h-1.25c-4.8,0-6.65-3.3-4.21-7.48s9.08-5.71,13.15-2.85a5.51,5.51,0,0,1-.65,9.14C573.21,215.9,570.9,216.28,567.7,216.28Z" transform="translate(-186.41 -90.95)"/></svg>